<?xml version="1.0" encoding="UTF-8"?>
<svg width="338px" height="113px" viewBox="0 0 338 113" version="1.1" xmlns="http://www.w3.org/2000/svg" xmlns:xlink="http://www.w3.org/1999/xlink">
    <title>SAUDI_MADE_main_horizontal_RGB</title>
    <defs>
        <polygon id="path-1" points="0 0 337.823 0 337.823 112.52 0 112.52"></polygon>
    </defs>
    <g id="Desktop" stroke="none" stroke-width="1" fill="none" fill-rule="evenodd">
        <g id="SAUDI_MADE_main_horizontal_RGB" transform="translate(0.000000, 0.000000)">
            <path d="M156.954,13.803 C155.578,12.681 154.203,11.857 152.827,11.321 C151.453,10.784 150.121,10.506 148.831,10.506 C147.197,10.506 145.866,10.894 144.834,11.667 C143.801,12.443 143.284,13.455 143.284,14.697 C143.284,15.561 143.543,16.275 144.059,16.833 C144.576,17.388 145.251,17.875 146.09,18.282 C146.929,18.689 147.873,19.047 148.925,19.344 C149.982,19.642 151.025,19.969 152.053,20.307 C156.178,21.688 159.203,23.526 161.115,25.829 C163.026,28.123 163.985,31.122 163.985,34.815 C163.985,37.308 163.563,39.572 162.728,41.588 C161.888,43.614 160.663,45.332 159.049,46.782 C157.44,48.212 155.46,49.334 153.121,50.128 C150.777,50.923 148.121,51.32 145.157,51.32 C139.01,51.32 133.314,49.502 128.066,45.848 L133.482,35.661 C135.375,37.338 137.247,38.58 139.094,39.394 C140.94,40.218 142.768,40.626 144.576,40.626 C146.636,40.626 148.175,40.148 149.183,39.205 C150.196,38.261 150.703,37.18 150.703,35.977 C150.703,35.252 150.573,34.617 150.315,34.081 C150.057,33.544 149.626,33.048 149.024,32.591 C148.424,32.145 147.638,31.727 146.671,31.341 C145.703,30.954 144.531,30.526 143.155,30.049 C141.522,29.533 139.924,28.967 138.354,28.341 C136.786,27.715 135.384,26.892 134.163,25.858 C132.937,24.826 131.949,23.526 131.195,21.957 C130.444,20.387 130.067,18.4 130.067,15.987 C130.067,13.585 130.465,11.4 131.258,9.444 C132.053,7.487 133.171,5.82 134.615,4.419 C136.05,3.019 137.813,1.937 139.898,1.162 C141.984,0.387 144.317,0 146.894,0 C149.302,0 151.82,0.338 154.441,1.003 C157.063,1.668 159.575,2.642 161.984,3.933 L156.954,13.803" id="Fill-1" fill="#156839"></path>
            <path d="M198.163,31.849 L192.473,15.608 L186.779,31.849 L198.163,31.849 Z M201.531,41.495 L183.411,41.495 L180.502,49.965 L166.979,49.965 L185.549,1.18 L199.393,1.18 L217.963,49.965 L204.441,49.965 L201.531,41.495 L201.531,41.495 Z" id="Fill-2" fill="#156839"></path>
            <path d="M234.238,1.18 L234.238,27.715 C234.238,29.129 234.293,30.595 234.403,32.079 C234.507,33.563 234.832,34.919 235.374,36.124 C235.911,37.33 236.764,38.307 237.924,39.064 C239.091,39.821 240.73,40.2 242.842,40.2 C244.96,40.2 246.584,39.821 247.729,39.064 C248.871,38.307 249.722,37.33 250.286,36.124 C250.843,34.919 251.177,33.563 251.287,32.079 C251.396,30.595 251.452,29.129 251.452,27.715 L251.452,1.18 L264.066,1.18 L264.066,29.458 C264.066,37.051 262.328,42.591 258.86,46.089 C255.387,49.576 250.046,51.32 242.842,51.32 C235.637,51.32 230.293,49.576 226.799,46.089 C223.307,42.591 221.558,37.051 221.558,29.458 L221.558,1.18 L234.238,1.18" id="Fill-3" fill="#156839"></path>
            <path d="M286.964,39.223 L289.88,39.223 C292.076,39.223 294.039,38.884 295.763,38.186 C297.492,37.5 298.946,36.553 300.133,35.348 C301.317,34.143 302.225,32.707 302.846,31.043 C303.474,29.379 303.789,27.556 303.789,25.572 C303.789,23.64 303.466,21.825 302.817,20.142 C302.171,18.458 301.253,17.013 300.067,15.807 C298.882,14.601 297.427,13.645 295.698,12.958 C293.974,12.27 292.032,11.921 289.88,11.921 L286.964,11.921 L286.964,39.223 Z M274.285,1.179 L293.048,1.179 C296.371,1.179 299.484,1.857 302.399,3.191 C305.308,4.528 307.854,6.301 310.031,8.523 C312.21,10.745 313.923,13.336 315.174,16.295 C316.424,19.245 317.051,22.344 317.051,25.572 C317.051,28.771 316.439,31.84 315.208,34.799 C313.977,37.749 312.274,40.349 310.097,42.591 C307.919,44.834 305.374,46.627 302.46,47.962 C299.549,49.297 296.41,49.965 293.048,49.965 L274.285,49.965 L274.285,1.179 L274.285,1.179 Z" id="Fill-4" fill="#156839"></path>
            <g id="Group-12" transform="translate(0.000000, 0.042000)">
                <mask id="mask-2" fill="white">
                    <use xlink:href="#path-1"></use>
                </mask>
                <g id="Clip-6"></g>
                <polygon id="Fill-5" fill="#156839" mask="url(#mask-2)" points="325.143 49.923 337.823 49.923 337.823 1.137 325.143 1.137"></polygon>
                <polyline id="Fill-7" fill="#156839" mask="url(#mask-2)" points="168.175 63.949 158.499 89.866 148.756 63.949 136.243 63.949 127.978 112.564 140.563 112.564 144.757 84.584 155.663 112.564 160.689 112.564 172.176 84.584 176.37 112.564 188.953 112.564 180.69 63.949 168.175 63.949"></polyline>
                <path d="M214.417,63.949 L195.913,112.579 L209.39,112.579 L212.286,104.124 L230.343,104.124 L233.243,112.579 L246.718,112.579 L228.216,63.949 L214.417,63.949 Z M221.318,78.334 L226.991,94.521 L215.644,94.521 L221.318,78.334 L221.318,78.334 Z" id="Fill-8" fill="#156839" mask="url(#mask-2)"></path>
                <path d="M268.509,101.872 L271.416,101.872 C273.604,101.872 275.56,101.535 277.279,100.838 C279.001,100.152 280.452,99.209 281.633,98.007 C282.814,96.796 283.717,95.366 284.338,93.717 C284.962,92.059 285.276,90.241 285.276,88.263 C285.276,86.326 284.953,84.521 284.308,82.853 C283.663,81.174 282.75,79.734 281.568,78.531 C280.385,77.317 278.937,76.377 277.212,75.688 C275.497,75.005 273.56,74.658 271.416,74.658 L268.509,74.658 L268.509,101.872 Z M255.876,63.95 L274.574,63.95 C277.883,63.95 280.985,64.615 283.891,65.948 C286.791,67.286 289.328,69.055 291.496,71.271 C293.668,73.484 295.374,76.066 296.622,79.008 C297.868,81.958 298.492,85.036 298.492,88.263 C298.492,91.443 297.882,94.513 296.658,97.452 C295.428,100.402 293.73,102.996 291.563,105.229 C289.391,107.463 286.854,109.252 283.952,110.582 C281.051,111.915 277.924,112.58 274.574,112.58 L255.876,112.58 L255.876,63.95 L255.876,63.95 Z" id="Fill-9" fill="#156839" mask="url(#mask-2)"></path>
                <polyline id="Fill-10" fill="#156839" mask="url(#mask-2)" points="310.167 63.949 310.167 112.579 337.824 112.579 337.824 101.875 322.799 101.875 322.799 93.49 336.984 93.49 336.984 82.782 322.799 82.782 322.799 74.657 337.824 74.657 337.824 63.949 310.167 63.949"></polyline>
                <polygon id="Fill-11" fill="#156839" mask="url(#mask-2)" points="-2.2759572e-15 112.52 112.508 112.52 112.508 0 -2.2759572e-15 0"></polygon>
            </g>
            <path d="M83.452,52.927 C89.569,60.977 92.968,66.869 92.968,66.869 C90.877,70.526 88.535,74.44 85.946,78.606 C85.946,78.606 82.181,72.298 75.455,63.449 C72.065,58.991 63.382,49.05 63.25,48.906 C63.256,49.102 63.244,92.33 63.271,96.407 L63.248,96.401 C63.249,96.416 63.249,96.439 63.249,96.454 L49.176,96.454 C49.203,92.376 49.191,49.102 49.197,48.906 C49.065,49.05 40.382,58.991 36.992,63.449 C30.266,72.298 26.501,78.606 26.501,78.606 C23.912,74.44 21.57,70.526 19.48,66.869 C19.48,66.869 22.878,60.977 28.995,52.927 C31.695,49.373 38.226,41.988 39.86,40.153 C35.225,41.004 30.91,42.111 27.693,43.178 C24.589,44.206 22.215,45.222 20.662,45.95 C19.183,46.642 18.392,47.086 18.392,47.086 C19.363,43.294 20.462,39.861 21.71,36.868 C21.71,36.868 22.451,36.342 23.844,35.527 C25.298,34.676 27.515,33.503 30.414,32.341 C33.479,31.113 37.322,29.894 41.708,28.987 C41.583,28.895 38.806,26.658 37.713,25.953 C32.658,22.688 30.669,23.743 30.669,23.743 C33.185,21.929 35.726,20.463 38.243,19.414 C38.243,19.414 38.635,19.186 39.394,19.004 C40.201,18.812 41.489,18.707 43.173,19.031 C45.062,19.396 50.481,21.934 50.573,21.986 C50.58,21.904 50.834,19.469 50.923,18.606 C51.184,16.081 51.739,16.235 52.182,16.197 L60.265,16.197 C60.708,16.235 61.263,16.081 61.524,18.606 C61.613,19.469 61.867,21.904 61.874,21.986 C61.966,21.934 67.385,19.396 69.274,19.031 C70.958,18.707 72.246,18.812 73.054,19.004 C73.812,19.186 74.204,19.414 74.204,19.414 C76.721,20.463 79.262,21.929 81.778,23.743 C81.778,23.743 79.789,22.688 74.734,25.953 C73.641,26.658 70.864,28.895 70.739,28.987 C75.126,29.894 78.968,31.113 82.033,32.341 C84.932,33.503 87.15,34.676 88.603,35.527 C89.996,36.342 90.737,36.868 90.737,36.868 C91.985,39.861 93.085,43.294 94.055,47.086 C94.055,47.086 93.264,46.642 91.785,45.95 C90.232,45.222 87.858,44.206 84.754,43.178 C81.537,42.111 77.222,41.004 72.587,40.153 C74.221,41.988 80.752,49.373 83.452,52.927" id="Fill-13" fill="#FFFFFE"></path>
        </g>
    </g>
</svg>